<svg width="253" height="60" viewBox="0 0 253 60" fill="none" xmlns="http://www.w3.org/2000/svg">
<g clip-path="url(#clip0_269_11622)">
<path d="M37.5526 13.534C37.5526 13.534 33.164 3.0416 17.0645 4.71623V41.1191C17.0645 41.1191 28.7695 39.2539 37.5526 43.6426V13.534Z" stroke="#171D1E" stroke-width="1.07407" stroke-linecap="round" stroke-linejoin="round"/>
<path d="M15.5974 8.68283C15.5974 8.68283 13.7149 6.77722 12.2539 6.70215V46.6506C12.2539 46.6506 22.8098 42.3312 33.3715 46.6506" stroke="#171D1E" stroke-width="1.07407" stroke-linecap="round" stroke-linejoin="round"/>
<path d="M8.77079 10.8193H6.95758C5.87773 10.8193 5 11.6971 5 12.7769V50.173C5 51.2529 5.87773 52.1306 6.95758 52.1306H33.1799C33.1799 52.1306 34.7333 55.9938 37.6148 55.9938C40.4963 55.9938 42.0496 52.3962 42.0496 52.3962H67.7176C68.7975 52.3962 69.6752 51.5185 69.6752 50.4387V12.7769C69.6752 11.6971 68.7975 10.8193 67.7176 10.8193H66.1758V46.691C66.1758 47.7015 65.3616 48.5157 64.351 48.5157H43.8686C42.8696 48.5157 41.9977 49.1394 41.6108 50.0633C41.0853 51.3279 39.9592 52.9159 37.6032 52.9159C35.4666 52.9159 34.2771 51.2355 33.6765 49.9478C33.2723 49.0759 32.4061 48.5157 31.4418 48.5157H10.4396C9.4291 48.5157 8.60911 47.6957 8.61488 46.6852L8.77657 10.8193H8.77079Z" fill="#5D5791"/>
<path d="M22.2949 12.5924C22.2949 12.5924 29.8134 12.0323 34.2945 16.6808" stroke="#171D1E" stroke-width="1.07407" stroke-linecap="round" stroke-linejoin="round"/>
<path d="M22.2949 16.2015C22.2949 16.2015 29.8134 15.5836 34.2945 20.2899" stroke="#171D1E" stroke-width="1.07407" stroke-linecap="round" stroke-linejoin="round"/>
<path d="M22.2949 20.0075C22.2949 20.0075 29.2648 19.4473 34.2945 24.0958" stroke="#171D1E" stroke-width="1.07407" stroke-linecap="round" stroke-linejoin="round"/>
<path d="M22.2949 23.6108C22.2949 23.6108 28.5546 22.3692 34.2945 27.6991" stroke="#171D1E" stroke-width="1.07407" stroke-linecap="round" stroke-linejoin="round"/>
<path d="M22.2949 27.4155C22.2949 27.4155 29.0454 26.3819 34.2945 31.5039" stroke="#171D1E" stroke-width="1.07407" stroke-linecap="round" stroke-linejoin="round"/>
<path d="M22.2949 31.0253C22.2949 31.0253 29.3745 29.8646 34.2945 35.1079" stroke="#171D1E" stroke-width="1.07407" stroke-linecap="round" stroke-linejoin="round"/>
<path d="M37.5527 13.534C37.5527 13.534 41.9414 3.0416 58.0409 4.71623V41.1191C58.0409 41.1191 46.3359 39.2539 37.5527 43.6426V13.534Z" stroke="#171D1E" stroke-width="1.07407" stroke-linecap="round" stroke-linejoin="round"/>
<path d="M59.5007 8.68283C59.5007 8.68283 61.3832 6.77722 62.8442 6.70215V46.6506C62.8442 46.6506 52.2883 42.3312 41.7266 46.6506" stroke="#171D1E" stroke-width="1.07407" stroke-linecap="round" stroke-linejoin="round"/>
<path d="M52.8023 12.5924C52.8023 12.5924 45.2838 12.0323 40.8027 16.6808" stroke="#171D1E" stroke-width="1.07407" stroke-linecap="round" stroke-linejoin="round"/>
<path d="M52.8023 16.2015C52.8023 16.2015 45.2838 15.5836 40.8027 20.2899" stroke="#171D1E" stroke-width="1.07407" stroke-linecap="round" stroke-linejoin="round"/>
<path d="M52.8023 20.0075C52.8023 20.0075 45.8324 19.4473 40.8027 24.0958" stroke="#171D1E" stroke-width="1.07407" stroke-linecap="round" stroke-linejoin="round"/>
<path d="M52.8023 23.6108C52.8023 23.6108 46.5427 22.3692 40.8027 27.6991" stroke="#171D1E" stroke-width="1.07407" stroke-linecap="round" stroke-linejoin="round"/>
<path d="M52.8023 27.4155C52.8023 27.4155 46.0518 26.3819 40.8027 31.5039" stroke="#171D1E" stroke-width="1.07407" stroke-linecap="round" stroke-linejoin="round"/>
<path d="M52.8023 31.0253C52.8023 31.0253 45.7227 29.8646 40.8027 35.1079" stroke="#171D1E" stroke-width="1.07407" stroke-linecap="round" stroke-linejoin="round"/>
<path d="M41.248 8.15806V15.4918L43.4539 17.4782L46.8032 12.5294V5.02247L46.6184 4.87811C45.9947 4.39882 45.1921 4.29487 44.4818 4.60093C43.9563 4.82613 43.3153 5.14374 42.6686 5.57105C42.0911 5.95218 41.6638 6.5585 41.479 7.26878L41.2538 8.15229L41.248 8.15806Z" fill="#5D5791"/>
</g>
<mask id="mask0_269_11622" style="mask-type:alpha" maskUnits="userSpaceOnUse" x="77" y="12" width="21" height="36">
<rect x="77.6816" y="12.0098" width="19.9889" height="35.98" fill="#D9D9D9"/>
</mask>
<g mask="url(#mask0_269_11622)">
<path d="M87.6281 40.2676C86.8179 40.2676 85.8691 40.2356 84.7817 40.1716C82.2871 40.065 80.4321 40.0117 79.2168 40.0117C78.7477 39.436 78.5132 38.7644 78.5132 37.9968C79.2381 37.9968 79.7498 37.8796 80.0483 37.645C80.3468 37.3892 80.4961 36.9627 80.4961 36.3657V21.3341C80.4961 20.7371 80.3468 20.3213 80.0483 20.0868C79.7498 19.8309 79.2381 19.703 78.5132 19.703C78.5132 18.9354 78.7477 18.2638 79.2168 17.6881C80.4108 17.6881 82.2551 17.6561 84.7497 17.5922C85.8584 17.5495 86.6153 17.5282 87.0205 17.5282C90.3679 17.5282 92.7346 18.0506 94.1205 19.0953C95.5064 20.1401 96.1994 21.4087 96.1994 22.9012C96.1994 24.1379 95.8795 25.1826 95.2399 26.0355C94.6216 26.867 93.5875 27.5813 92.1376 28.1783C94.0352 28.5621 95.3891 29.1697 96.1994 30.0013C97.0096 30.8328 97.4147 32.0801 97.4147 33.7432C97.4147 38.0928 94.1525 40.2676 87.6281 40.2676ZM86.7326 27.4107C89.5897 27.4107 91.0182 26.1528 91.0182 23.6368C91.0182 22.4428 90.6877 21.5153 90.0268 20.8544C89.3871 20.1934 88.4063 19.8629 87.0844 19.8629C86.4874 19.8629 86.0503 19.9056 85.7731 19.9908V27.3468C86.1569 27.3894 86.4768 27.4107 86.7326 27.4107ZM87.1164 37.9329C90.1014 37.9329 91.5939 36.6429 91.5939 34.063C91.5939 32.5918 91.2208 31.5044 90.4745 30.8008C89.7283 30.0759 88.513 29.7134 86.8286 29.7134L85.7731 29.7454V37.8369C86.3488 37.9009 86.7966 37.9329 87.1164 37.9329Z" fill="#5D5791"/>
</g>
<mask id="mask1_269_11622" style="mask-type:alpha" maskUnits="userSpaceOnUse" x="100" y="12" width="19" height="36">
<rect x="100.336" y="12.0098" width="18.6563" height="35.98" fill="#D9D9D9"/>
</mask>
<g mask="url(#mask1_269_11622)">
<path d="M109.573 40.4275C107.228 40.4275 105.352 39.6919 103.944 38.2207C102.537 36.7282 101.833 34.6067 101.833 31.8562C101.833 29.8947 102.164 28.2209 102.825 26.835C103.507 25.4491 104.456 24.4044 105.671 23.7008C106.887 22.9972 108.294 22.6454 109.893 22.6454C111.428 22.6454 112.771 22.9865 113.923 23.6688C115.095 24.3298 116.002 25.3106 116.641 26.6112C117.302 27.9118 117.633 29.4896 117.633 31.3445C117.633 33.2848 117.292 34.9372 116.609 36.3018C115.948 37.6664 115.01 38.7004 113.795 39.4041C112.58 40.0863 111.172 40.4275 109.573 40.4275ZM109.829 38.1248C110.575 38.1248 111.13 37.6983 111.492 36.8455C111.855 35.9926 112.036 34.4148 112.036 32.1121C112.036 30.1719 111.94 28.6793 111.748 27.6346C111.556 26.5898 111.29 25.8756 110.948 25.4918C110.607 25.108 110.17 24.9161 109.637 24.9161C108.891 24.9161 108.326 25.3425 107.942 26.1954C107.58 27.0483 107.398 28.6474 107.398 30.9927C107.398 32.9117 107.494 34.3935 107.686 35.4383C107.878 36.4617 108.145 37.1653 108.486 37.5491C108.848 37.9329 109.296 38.1248 109.829 38.1248Z" fill="#5D5791"/>
</g>
<mask id="mask2_269_11622" style="mask-type:alpha" maskUnits="userSpaceOnUse" x="121" y="12" width="20" height="36">
<rect x="121.656" y="12.0098" width="18.6563" height="35.98" fill="#D9D9D9"/>
</mask>
<g mask="url(#mask2_269_11622)">
<path d="M130.894 40.4275C128.548 40.4275 126.672 39.6919 125.265 38.2207C123.857 36.7282 123.154 34.6067 123.154 31.8562C123.154 29.8947 123.484 28.2209 124.145 26.835C124.828 25.4491 125.776 24.4044 126.992 23.7008C128.207 22.9972 129.614 22.6454 131.213 22.6454C132.748 22.6454 134.092 22.9865 135.243 23.6688C136.416 24.3298 137.322 25.3106 137.962 26.6112C138.623 27.9118 138.953 29.4896 138.953 31.3445C138.953 33.2848 138.612 34.9372 137.93 36.3018C137.269 37.6664 136.33 38.7004 135.115 39.4041C133.9 40.0863 132.493 40.4275 130.894 40.4275ZM131.149 38.1248C131.896 38.1248 132.45 37.6983 132.812 36.8455C133.175 35.9926 133.356 34.4148 133.356 32.1121C133.356 30.1719 133.26 28.6793 133.068 27.6346C132.876 26.5898 132.61 25.8756 132.269 25.4918C131.928 25.108 131.491 24.9161 130.957 24.9161C130.211 24.9161 129.646 25.3425 129.262 26.1954C128.9 27.0483 128.719 28.6474 128.719 30.9927C128.719 32.9117 128.815 34.3935 129.007 35.4383C129.198 36.4617 129.465 37.1653 129.806 37.5491C130.169 37.9329 130.616 38.1248 131.149 38.1248Z" fill="#5D5791"/>
</g>
<mask id="mask3_269_11622" style="mask-type:alpha" maskUnits="userSpaceOnUse" x="142" y="12" width="23" height="36">
<rect x="142.979" y="12.0098" width="21.9878" height="35.98" fill="#D9D9D9"/>
</mask>
<g mask="url(#mask3_269_11622)">
<path d="M161.624 38.9243C161.56 39.3721 161.262 39.7239 160.729 39.9797C160.217 40.2143 159.556 40.3315 158.746 40.3315C157.658 40.3315 156.752 40.097 156.027 39.6279C155.324 39.1589 154.769 38.5938 154.364 37.9329C153.959 37.2719 153.522 36.4084 153.053 35.3423C152.584 34.2976 152.168 33.498 151.806 32.9436C151.464 32.3893 151.017 32.0055 150.462 31.7923V36.6856C150.462 37.3039 150.59 37.7516 150.846 38.0288C151.123 38.2847 151.592 38.4126 152.253 38.4126C152.253 39.0736 151.998 39.6386 151.486 40.1077H144.45C143.938 39.6599 143.682 39.0949 143.682 38.4126C144.322 38.4126 144.77 38.2847 145.025 38.0288C145.303 37.7516 145.441 37.3039 145.441 36.6856V19.3512C145.441 18.8182 145.292 18.4237 144.993 18.1679C144.695 17.8907 144.13 17.7521 143.298 17.7521V16.4728C144.066 16.0677 145.036 15.7052 146.209 15.3854C147.403 15.0656 148.341 14.9057 149.023 14.9057C149.535 14.9057 149.897 15.0229 150.111 15.2575C150.345 15.492 150.462 15.8758 150.462 16.4088V30.6409L153.98 26.995C154.386 26.5898 154.588 26.27 154.588 26.0355C154.588 25.737 154.354 25.4598 153.884 25.2039C153.437 24.9481 153 24.8202 152.573 24.8202C152.573 24.4577 152.637 24.1059 152.765 23.7647C152.893 23.4236 153.074 23.1251 153.309 22.8692H160.505C160.91 23.2744 161.112 23.9247 161.112 24.8202C160.601 24.8202 160.196 24.8948 159.897 25.044C159.62 25.1933 159.332 25.4065 159.034 25.6837L154.172 30.481C154.961 30.6089 155.622 30.8755 156.155 31.2806C156.71 31.6644 157.211 32.2614 157.658 33.0716C158.191 34.031 158.469 34.5321 158.49 34.5747C159.194 35.8754 159.716 36.7495 160.057 37.1973C160.419 37.6237 160.931 37.9435 161.592 38.1567L161.624 38.9243Z" fill="#5D5791"/>
</g>
<mask id="mask4_269_11622" style="mask-type:alpha" maskUnits="userSpaceOnUse" x="167" y="12" width="25" height="36">
<rect x="167.631" y="12.0098" width="23.9867" height="35.98" fill="#D9D9D9"/>
</mask>
<g mask="url(#mask4_269_11622)">
<path d="M188.163 36.3657C188.163 36.9627 188.302 37.3785 188.579 37.6131C188.878 37.8476 189.368 37.9649 190.05 37.9649C190.05 38.3486 189.986 38.7218 189.859 39.0842C189.731 39.4467 189.56 39.7559 189.347 40.0117H181.575C181.362 39.7559 181.191 39.4467 181.063 39.0842C180.935 38.7218 180.872 38.3486 180.872 37.9649C181.575 37.9649 182.066 37.8476 182.343 37.6131C182.641 37.3785 182.79 36.9627 182.79 36.3657V30.0013H175.754V36.3657C175.754 36.9627 175.893 37.3785 176.17 37.6131C176.469 37.8476 176.97 37.9649 177.673 37.9649C177.673 38.3486 177.609 38.7218 177.481 39.0842C177.353 39.4467 177.183 39.7559 176.97 40.0117H169.166C168.953 39.7559 168.782 39.4467 168.654 39.0842C168.526 38.7218 168.462 38.3486 168.462 37.9649C169.166 37.9649 169.656 37.8476 169.934 37.6131C170.232 37.3785 170.381 36.9627 170.381 36.3657V21.3341C170.381 20.7371 170.232 20.3213 169.934 20.0868C169.656 19.8309 169.166 19.703 168.462 19.703C168.462 19.3405 168.526 18.9781 168.654 18.6156C168.782 18.2531 168.953 17.944 169.166 17.6881H176.97C177.183 17.944 177.353 18.2531 177.481 18.6156C177.609 18.9781 177.673 19.3405 177.673 19.703C176.97 19.703 176.469 19.8309 176.17 20.0868C175.893 20.3213 175.754 20.7371 175.754 21.3341V27.3148H182.79V21.3341C182.79 20.7371 182.641 20.3213 182.343 20.0868C182.044 19.8309 181.554 19.703 180.872 19.703C180.872 19.3405 180.935 18.9781 181.063 18.6156C181.191 18.2531 181.362 17.944 181.575 17.6881H189.347C189.56 17.944 189.731 18.2531 189.859 18.6156C189.986 18.9781 190.05 19.3405 190.05 19.703C189.368 19.703 188.878 19.8309 188.579 20.0868C188.302 20.3213 188.163 20.7371 188.163 21.3341V36.3657Z" fill="#5D5791"/>
</g>
<mask id="mask5_269_11622" style="mask-type:alpha" maskUnits="userSpaceOnUse" x="194" y="12" width="11" height="36">
<rect x="194.283" y="12.0098" width="9.99445" height="35.98" fill="#D9D9D9"/>
</mask>
<g mask="url(#mask5_269_11622)">
<path d="M202.471 17.4003C202.471 18.3171 202.183 19.0527 201.607 19.6071C201.053 20.1401 200.307 20.4066 199.368 20.4066C198.452 20.4066 197.716 20.1401 197.162 19.6071C196.629 19.0527 196.362 18.3171 196.362 17.4003C196.362 16.5048 196.639 15.7798 197.194 15.2255C197.769 14.6711 198.516 14.394 199.432 14.394C200.349 14.394 201.085 14.6711 201.639 15.2255C202.193 15.7798 202.471 16.5048 202.471 17.4003ZM201.863 36.5576C201.863 37.176 202.012 37.6237 202.311 37.9009C202.631 38.1567 203.11 38.2847 203.75 38.2847C203.75 38.9456 203.505 39.5213 203.014 40.0117H195.786C195.296 39.5213 195.051 38.9456 195.051 38.2847C195.69 38.2847 196.149 38.1567 196.426 37.9009C196.725 37.6237 196.874 37.1653 196.874 36.5257V27.2508C196.874 26.6538 196.725 26.2274 196.426 25.9715C196.149 25.7157 195.594 25.5877 194.763 25.5877V24.1805C195.275 23.8607 196.138 23.5302 197.353 23.1891C198.59 22.8266 199.635 22.6454 200.488 22.6454C200.978 22.6454 201.33 22.7626 201.543 22.9972C201.756 23.2104 201.863 23.5835 201.863 24.1166V36.5576Z" fill="#5D5791"/>
</g>
<mask id="mask6_269_11622" style="mask-type:alpha" maskUnits="userSpaceOnUse" x="206" y="12" width="21" height="36">
<rect x="206.943" y="12.0098" width="19.3226" height="35.98" fill="#D9D9D9"/>
</mask>
<g mask="url(#mask6_269_11622)">
<path d="M215.341 31.4085L216.812 37.0054L218.283 31.4085L219.53 27.0589C219.615 26.7178 219.658 26.4619 219.658 26.2913C219.658 25.8436 219.509 25.5131 219.21 25.2999C218.933 25.0654 218.528 24.9481 217.995 24.9481C217.995 24.0739 218.198 23.4343 218.603 23.0292H224.807C225.234 23.4556 225.447 24.0952 225.447 24.9481C224.914 24.9481 224.509 25.076 224.232 25.3319C223.954 25.5877 223.72 26.0142 223.528 26.6112L220.202 36.8135C219.839 38.0715 219.434 38.9563 218.987 39.468C218.539 39.9797 217.856 40.2356 216.94 40.2356H213.613L208.56 26.6112C208.326 25.9928 208.091 25.5664 207.857 25.3319C207.622 25.076 207.238 24.9481 206.705 24.9481C206.705 24.1165 206.929 23.4769 207.377 23.0292H214.669C214.903 23.2637 215.085 23.5622 215.213 23.9247C215.341 24.2658 215.404 24.6069 215.404 24.9481C214.957 24.9481 214.594 25.076 214.317 25.3319C214.04 25.5664 213.901 25.9182 213.901 26.3873C213.901 26.5365 213.944 26.7604 214.029 27.0589L215.341 31.4085Z" fill="#5D5791"/>
</g>
<mask id="mask7_269_11622" style="mask-type:alpha" maskUnits="userSpaceOnUse" x="228" y="12" width="20" height="36">
<rect x="228.932" y="12.0098" width="18.6563" height="35.98" fill="#D9D9D9"/>
</mask>
<g mask="url(#mask7_269_11622)">
<path d="M239.832 36.7495C241.175 36.7495 242.423 36.3231 243.574 35.4702C243.744 35.6408 243.894 35.8967 244.022 36.2378C244.15 36.579 244.214 36.8775 244.214 37.1333C244.214 37.5171 243.958 37.9649 243.446 38.4766C242.934 38.967 242.22 39.3934 241.303 39.7559C240.408 40.1183 239.395 40.2996 238.265 40.2996C236.687 40.2996 235.301 39.9584 234.107 39.2761C232.934 38.5938 232.028 37.6024 231.389 36.3018C230.749 35.0012 230.429 33.466 230.429 31.6963C230.429 29.884 230.77 28.2956 231.453 26.931C232.156 25.5664 233.116 24.5217 234.331 23.7967C235.546 23.0505 236.922 22.6773 238.457 22.6773C240.397 22.6773 241.943 23.2424 243.094 24.3724C244.246 25.5024 244.821 27.0696 244.821 29.0738C244.821 30.0119 244.672 30.7582 244.373 31.3126C244.075 31.8456 243.542 32.1121 242.774 32.1121H235.866C235.994 35.2037 237.316 36.7495 239.832 36.7495ZM238.265 24.8841C237.604 24.8841 237.05 25.2572 236.602 26.0035C236.154 26.7284 235.909 27.9544 235.866 29.6815H239.096C239.438 29.6815 239.661 29.5642 239.768 29.3297C239.875 29.0951 239.928 28.7327 239.928 28.2423C239.928 26.9843 239.779 26.1101 239.48 25.6197C239.182 25.1293 238.777 24.8841 238.265 24.8841Z" fill="#5D5791"/>
</g>
<defs>
<clipPath id="clip0_269_11622">
<rect width="64.681" height="52" fill="white" transform="translate(5 4)"/>
</clipPath>
</defs>
</svg>
