<svg width="33" height="32" viewBox="0 0 33 32" fill="none" xmlns="http://www.w3.org/2000/svg">
<path d="M27.3759 27.1883H22.6345V19.8138C22.6345 18.0553 22.6029 15.7916 20.1685 15.7916C17.699 15.7916 17.3211 17.7075 17.3211 19.6858V27.1879H12.5797V12.0229H17.1315V14.0953H17.1952C17.6507 13.3218 18.309 12.6855 19.0998 12.2541C19.8907 11.8227 20.7845 11.6124 21.6862 11.6457C26.4918 11.6457 27.3779 14.785 27.3779 18.8691L27.3759 27.1883ZM7.22985 9.94994C6.68566 9.95003 6.15364 9.78986 5.70111 9.48967C5.24857 9.18948 4.89586 8.76275 4.68751 8.26345C4.47917 7.76415 4.42457 7.21471 4.53064 6.6846C4.63671 6.15449 4.89868 5.66752 5.28342 5.28528C5.66815 4.90304 6.15838 4.64268 6.6921 4.53715C7.22581 4.43161 7.77905 4.48563 8.28185 4.69237C8.78466 4.89911 9.21445 5.24929 9.51687 5.69863C9.81929 6.14796 9.98076 6.67627 9.98086 7.21675C9.98092 7.57561 9.90981 7.93097 9.77159 8.26254C9.63338 8.59412 9.43078 8.8954 9.17532 9.1492C8.91987 9.403 8.61656 9.60434 8.28276 9.74173C7.94896 9.87912 7.59118 9.94987 7.22985 9.94994ZM9.60055 27.1883H4.85421V12.0229H9.60055V27.1883ZM29.7397 0.11154H2.47167C1.85277 0.104604 1.25638 0.341985 0.813605 0.771521C0.370834 1.20106 0.117905 1.78761 0.110352 2.40228V29.5963C0.117646 30.2113 0.370427 30.7982 0.813183 31.2282C1.25594 31.6582 1.85246 31.8961 2.47167 31.8895H29.7397C30.3601 31.8972 30.9583 31.6601 31.4028 31.2301C31.8473 30.8001 32.1018 30.2125 32.1104 29.5963V2.40032C32.1015 1.78442 31.8469 1.19721 31.4023 0.767683C30.9578 0.338158 30.3598 0.101455 29.7397 0.109577" fill="#0A66C2"/>
</svg>
