<svg xmlns="http://www.w3.org/2000/svg">
  <g id='like'>
    <svg width="25" height="24" viewBox="0 0 25 24" fill="none" xmlns="http://www.w3.org/2000/svg">
    <path d="M12.1 18.55L12 18.65L11.89 18.55C7.14 14.24 4 11.39 4 8.5C4 6.5 5.5 5 7.5 5C9.04 5 10.54 6 11.07 7.36H12.93C13.46 6 14.96 5 16.5 5C18.5 5 20 6.5 20 8.5C20 11.39 16.86 14.24 12.1 18.55ZM16.5 3C14.76 3 13.09 3.81 12 5.08C10.91 3.81 9.24 3 7.5 3C4.42 3 2 5.41 2 8.5C2 12.27 5.4 15.36 10.55 20.03L12 21.35L13.45 20.03C18.6 15.36 22 12.27 22 8.5C22 5.41 19.58 3 16.5 3Z" fill="currentColor"/>
    </svg>
  </g>

  <g id='cart'>
    <svg width="25" height="24" viewBox="0 0 25 24" fill="none" xmlns="http://www.w3.org/2000/svg">
    <path d="M3 2.85714C3 2.62981 3.09031 2.4118 3.25105 2.25105C3.4118 2.09031 3.62981 2 3.85714 2H4.49486C5.58057 2 6.232 2.73029 6.60343 3.40914C6.85143 3.86171 7.03086 4.38629 7.17143 4.86171C7.20945 4.85871 7.24757 4.85719 7.28571 4.85714H21.5691C22.5177 4.85714 23.2034 5.76457 22.9429 6.67771L20.8537 14.0023C20.6664 14.6593 20.2701 15.2373 19.7249 15.6489C19.1797 16.0605 18.5152 16.2833 17.832 16.2834H11.0343C10.3457 16.2835 9.67617 16.0573 9.1286 15.6399C8.58102 15.2224 8.18571 14.6366 8.00343 13.9726L7.13486 10.8046L5.69486 5.94971L5.69371 5.94057C5.51543 5.29257 5.34857 4.68571 5.09943 4.23314C4.86057 3.79314 4.66857 3.71429 4.496 3.71429H3.85714C3.62981 3.71429 3.4118 3.62398 3.25105 3.46323C3.09031 3.30249 3 3.08447 3 2.85714ZM8.79771 10.3886L9.656 13.5189C9.82743 14.1383 10.3909 14.5691 11.0343 14.5691H17.832C18.1425 14.5691 18.4446 14.468 18.6925 14.2809C18.9403 14.0939 19.1205 13.8312 19.2057 13.5326L21.1909 6.57143H7.66857L8.78171 10.328L8.79771 10.3886ZM12.7143 19.7143C12.7143 20.3205 12.4735 20.9019 12.0448 21.3305C11.6162 21.7592 11.0348 22 10.4286 22C9.82236 22 9.24098 21.7592 8.81233 21.3305C8.38367 20.9019 8.14286 20.3205 8.14286 19.7143C8.14286 19.1081 8.38367 18.5267 8.81233 18.098C9.24098 17.6694 9.82236 17.4286 10.4286 17.4286C11.0348 17.4286 11.6162 17.6694 12.0448 18.098C12.4735 18.5267 12.7143 19.1081 12.7143 19.7143ZM11 19.7143C11 19.5627 10.9398 19.4174 10.8326 19.3102C10.7255 19.2031 10.5801 19.1429 10.4286 19.1429C10.277 19.1429 10.1317 19.2031 10.0245 19.3102C9.91735 19.4174 9.85714 19.5627 9.85714 19.7143C9.85714 19.8658 9.91735 20.0112 10.0245 20.1183C10.1317 20.2255 10.277 20.2857 10.4286 20.2857C10.5801 20.2857 10.7255 20.2255 10.8326 20.1183C10.9398 20.0112 11 19.8658 11 19.7143ZM20.7143 19.7143C20.7143 20.3205 20.4735 20.9019 20.0448 21.3305C19.6162 21.7592 19.0348 22 18.4286 22C17.8224 22 17.241 21.7592 16.8123 21.3305C16.3837 20.9019 16.1429 20.3205 16.1429 19.7143C16.1429 19.1081 16.3837 18.5267 16.8123 18.098C17.241 17.6694 17.8224 17.4286 18.4286 17.4286C19.0348 17.4286 19.6162 17.6694 20.0448 18.098C20.4735 18.5267 20.7143 19.1081 20.7143 19.7143ZM19 19.7143C19 19.5627 18.9398 19.4174 18.8326 19.3102C18.7255 19.2031 18.5801 19.1429 18.4286 19.1429C18.277 19.1429 18.1317 19.2031 18.0245 19.3102C17.9173 19.4174 17.8571 19.5627 17.8571 19.7143C17.8571 19.8658 17.9173 20.0112 18.0245 20.1183C18.1317 20.2255 18.277 20.2857 18.4286 20.2857C18.5801 20.2857 18.7255 20.2255 18.8326 20.1183C18.9398 20.0112 19 19.8658 19 19.7143Z" fill="currentColor"/>
    </svg>

  </g>

  <g id='account'>
    <svg width="25" height="24" viewBox="0 0 25 24" fill="none" xmlns="http://www.w3.org/2000/svg">
    <path d="M22 11.99C22 6.475 17.52 2 12 2C6.48 2 2 6.475 2 11.99C2 15.0275 3.38 17.765 5.54 19.6025C5.56 19.6225 5.58 19.6225 5.58 19.6425C5.76 19.7825 5.94 19.9225 6.14 20.0625C6.24 20.1225 6.32 20.2013 6.42 20.2812C8.07258 21.4017 10.0234 22.0004 12.02 22C14.0166 22.0004 15.9674 21.4017 17.62 20.2812C17.72 20.2213 17.8 20.1425 17.9 20.0812C18.08 19.9425 18.28 19.8025 18.46 19.6625C18.48 19.6425 18.5 19.6425 18.5 19.6225C20.62 17.7637 22 15.0275 22 11.99ZM12 20.7412C10.12 20.7412 8.4 20.1413 6.98 19.1425C7 18.9825 7.04 18.8237 7.08 18.6637C7.19917 18.2301 7.37396 17.8138 7.6 17.425C7.82 17.045 8.08 16.705 8.4 16.405C8.7 16.105 9.06 15.8263 9.42 15.6063C9.8 15.3863 10.2 15.2262 10.64 15.1062C11.0834 14.9867 11.5408 14.9266 12 14.9275C13.3633 14.9178 14.6765 15.4408 15.66 16.385C16.12 16.845 16.48 17.385 16.74 18.0037C16.88 18.3638 16.98 18.7437 17.04 19.1425C15.564 20.1802 13.8043 20.7384 12 20.7412ZM8.94 11.4913C8.76378 11.0878 8.67516 10.6515 8.68 10.2112C8.68 9.7725 8.76 9.3325 8.94 8.9325C9.12 8.5325 9.36 8.17375 9.66 7.87375C9.96 7.57375 10.32 7.335 10.72 7.155C11.12 6.975 11.56 6.895 12 6.895C12.46 6.895 12.88 6.975 13.28 7.155C13.68 7.335 14.04 7.575 14.34 7.87375C14.64 8.17375 14.88 8.53375 15.06 8.9325C15.24 9.3325 15.32 9.7725 15.32 10.2112C15.32 10.6712 15.24 11.0913 15.06 11.49C14.8863 11.8841 14.6423 12.2433 14.34 12.55C14.0332 12.8519 13.674 13.0954 13.28 13.2688C12.4535 13.6084 11.5265 13.6084 10.7 13.2688C10.306 13.0954 9.94684 12.8519 9.64 12.55C9.33727 12.2477 9.09912 11.8884 8.94 11.4913ZM18.22 18.1238C18.22 18.0837 18.2 18.0638 18.2 18.0238C18.0033 17.398 17.7134 16.8055 17.34 16.2663C16.9663 15.723 16.507 15.2438 15.98 14.8475C15.5775 14.5447 15.1413 14.2897 14.68 14.0875C14.8899 13.9491 15.0843 13.7886 15.26 13.6087C15.5582 13.3144 15.82 12.9854 16.04 12.6287C16.4829 11.901 16.7117 11.0631 16.7 10.2112C16.7062 9.58064 16.5837 8.9554 16.34 8.37375C16.0994 7.8133 15.7531 7.30445 15.32 6.875C14.8876 6.45004 14.3786 6.11074 13.82 5.875C13.2374 5.63174 12.6113 5.50968 11.98 5.51625C11.3486 5.51007 10.7225 5.63256 10.14 5.87625C9.57657 6.11148 9.06639 6.45798 8.64 6.895C8.21505 7.32698 7.87574 7.83552 7.64 8.39375C7.39631 8.9754 7.27381 9.60064 7.28 10.2312C7.28 10.6713 7.34 11.0913 7.46 11.49C7.58 11.91 7.74 12.29 7.96 12.6488C8.16 13.0087 8.44 13.3288 8.74 13.6288C8.92 13.8088 9.12 13.9675 9.34 14.1075C8.87729 14.3151 8.4409 14.5769 8.04 14.8875C7.52 15.2875 7.06 15.7662 6.68 16.2863C6.30282 16.8233 6.0126 17.4164 5.82 18.0438C5.8 18.0837 5.8 18.1238 5.8 18.1437C4.22 16.545 3.24 14.3875 3.24 11.99C3.24 7.175 7.18 3.23875 12 3.23875C16.82 3.23875 20.76 7.175 20.76 11.99C20.7574 14.2899 19.8441 16.4953 18.22 18.1238Z" fill="currentColor"/>
    </svg>

  </g>

  <g id='chev-right'>
    <svg width="8" height="14" viewBox="0 0 8 14" fill="none" xmlns="http://www.w3.org/2000/svg">
      <path fill-rule="evenodd" clip-rule="evenodd" d="M7.70734 6.29294C7.89481 6.48046 8.00013 6.73477 8.00013 6.99994C8.00013 7.2651 7.89481 7.51941 7.70734 7.70694L2.05034 13.3639C1.9581 13.4594 1.84775 13.5356 1.72575 13.588C1.60374 13.6404 1.47252 13.668 1.33974 13.6692C1.20696 13.6703 1.07529 13.645 0.952389 13.5948C0.829493 13.5445 0.71784 13.4702 0.623948 13.3763C0.530055 13.2824 0.455802 13.1708 0.405521 13.0479C0.35524 12.925 0.329939 12.7933 0.331092 12.6605C0.332246 12.5278 0.359833 12.3965 0.412242 12.2745C0.464651 12.1525 0.540832 12.0422 0.636343 11.9499L5.58634 6.99994L0.636343 2.04994C0.454185 1.86133 0.35339 1.60873 0.355669 1.34653C0.357947 1.08434 0.463116 0.833526 0.648524 0.648118C0.833932 0.46271 1.08474 0.357541 1.34694 0.355262C1.60914 0.352984 1.86174 0.453778 2.05034 0.635936L7.70734 6.29294Z" fill="currentColor"/>
    </svg>

  </g>
  
  <g id='chev-left'>
    <svg width="8" height="14" viewBox="0 0 8 14" fill="none" xmlns="http://www.w3.org/2000/svg">
      <path fill-rule="evenodd" clip-rule="evenodd" d="M0.292787 7.70698C0.105316 7.51945 0 7.26514 0 6.99998C0 6.73481 0.105316 6.4805 0.292787 6.29298L5.94979 0.635977C6.04203 0.540467 6.15238 0.464284 6.27438 0.411875C6.39639 0.359466 6.52761 0.33188 6.66039 0.330726C6.79316 0.329572 6.92484 0.354874 7.04774 0.405155C7.17064 0.455436 7.28229 0.529689 7.37618 0.623582C7.47007 0.717475 7.54433 0.829126 7.59461 0.952023C7.64489 1.07492 7.67019 1.2066 7.66904 1.33938C7.66788 1.47216 7.6403 1.60338 7.58789 1.72538C7.53548 1.84739 7.4593 1.95773 7.36379 2.04998L2.41379 6.99998L7.36379 11.95C7.54594 12.1386 7.64674 12.3912 7.64446 12.6534C7.64218 12.9156 7.53701 13.1664 7.35161 13.3518C7.1662 13.5372 6.91538 13.6424 6.65319 13.6447C6.39099 13.6469 6.13839 13.5461 5.94979 13.364L0.292787 7.70698Z" fill="currentColor"/>
    </svg>

  </g>

  <g id='eye-stroke'>
    <svg width="24" height="24" viewBox="0 0 24 24" fill="none" xmlns="http://www.w3.org/2000/svg">
      <path d="M2 5.27L3.28 4L20 20.72L18.73 22L15.65 18.92C14.5 19.3 13.28 19.5 12 19.5C7 19.5 2.73 16.39 1 12C1.69 10.24 2.79 8.69 4.19 7.46L2 5.27ZM12 9C12.7956 9 13.5587 9.31607 14.1213 9.87868C14.6839 10.4413 15 11.2044 15 12C15.0005 12.3406 14.943 12.6787 14.83 13L11 9.17C11.3213 9.05698 11.6594 8.99949 12 9ZM12 4.5C17 4.5 21.27 7.61 23 12C22.1839 14.0732 20.7969 15.8727 19 17.19L17.58 15.76C18.9629 14.8034 20.0782 13.5091 20.82 12C20.0116 10.3499 18.7564 8.95977 17.1973 7.9875C15.6381 7.01524 13.8375 6.49988 12 6.5C10.91 6.5 9.84 6.68 8.84 7L7.3 5.47C8.74 4.85 10.33 4.5 12 4.5ZM3.18 12C3.98844 13.6501 5.24357 15.0402 6.80273 16.0125C8.36189 16.9848 10.1625 17.5001 12 17.5C12.69 17.5 13.37 17.43 14 17.29L11.72 15C11.0242 14.9254 10.3748 14.6149 9.87997 14.12C9.38512 13.6252 9.07458 12.9758 9 12.28L5.6 8.87C4.61 9.72 3.78 10.78 3.18 12Z" fill="currentColor"/>
    </svg>

  </g>

  <g id='eye'>
    <svg width="24" height="24" viewBox="0 0 24 24" fill="none" xmlns="http://www.w3.org/2000/svg">
      <path d="M12 9C11.206 9.00524 10.4459 9.32299 9.88447 9.88447C9.32299 10.4459 9.00524 11.206 9 12C9 13.642 10.358 15 12 15C13.641 15 15 13.642 15 12C15 10.359 13.641 9 12 9Z" fill="currentColor"/>
      <path d="M11.9998 5C4.3668 5 2.0728 11.617 2.0518 11.684L1.9458 12L2.0508 12.316C2.0728 12.383 4.3668 19 11.9998 19C19.6328 19 21.9268 12.383 21.9478 12.316L22.0538 12L21.9488 11.684C21.9268 11.617 19.6328 5 11.9998 5ZM11.9998 17C6.6488 17 4.5758 13.154 4.0738 12C4.5778 10.842 6.6518 7 11.9998 7C17.3508 7 19.4238 10.846 19.9258 12C19.4218 13.158 17.3478 17 11.9998 17Z" fill="currentColor"/>
    </svg>

  </g>

  <g id='menu-icon'>
    <svg width="24" height="16" viewBox="0 0 24 16" fill="none" xmlns="http://www.w3.org/2000/svg">
    <path d="M0 16H24V13.3333H0V16ZM0 9.33333H24V6.66667H0V9.33333ZM0 0V2.66667H24V0H0Z" fill="#1C1B20"/>
    </svg>
  </g>

  <g id='search'>
    <svg width="44" height="44" viewBox="0 0 44 44" fill="none" xmlns="http://www.w3.org/2000/svg">
    <path d="M27.5556 27.5556L32 32M12 20.8889C12 23.2464 12.9365 25.5073 14.6035 27.1743C16.2705 28.8413 18.5314 29.7778 20.8889 29.7778C23.2464 29.7778 25.5073 28.8413 27.1743 27.1743C28.8413 25.5073 29.7778 23.2464 29.7778 20.8889C29.7778 18.5314 28.8413 16.2705 27.1743 14.6035C25.5073 12.9365 23.2464 12 20.8889 12C18.5314 12 16.2705 12.9365 14.6035 14.6035C12.9365 16.2705 12 18.5314 12 20.8889Z" stroke="currentColor" stroke-width="1.66667" stroke-linecap="round" stroke-linejoin="round"/>
    </svg>

  </g>
  
  <g id='chev-down'>
    <svg width="14" height="8" viewBox="0 0 14 8" fill="none" xmlns="http://www.w3.org/2000/svg">
    <path fill-rule="evenodd" clip-rule="evenodd" d="M8.00031 7.70734C7.81278 7.89481 7.55848 8.00013 7.29331 8.00013C7.02815 8.00013 6.77384 7.89481 6.58631 7.70734L0.929312 2.05034C0.833802 1.9581 0.757619 1.84775 0.70521 1.72575C0.652801 1.60374 0.625215 1.47252 0.624061 1.33974C0.622907 1.20696 0.648209 1.07529 0.69849 0.952389C0.748771 0.829493 0.823024 0.71784 0.916917 0.623948C1.01081 0.530055 1.12246 0.455802 1.24536 0.405521C1.36825 0.35524 1.49993 0.329939 1.63271 0.331092C1.76549 0.332246 1.89671 0.359833 2.01872 0.412242C2.14072 0.464651 2.25107 0.540832 2.34331 0.636343L7.29331 5.58634L12.2433 0.636343C12.4319 0.454185 12.6845 0.35339 12.9467 0.355669C13.2089 0.357947 13.4597 0.463116 13.6451 0.648524C13.8305 0.833932 13.9357 1.08474 13.938 1.34694C13.9403 1.60914 13.8395 1.86174 13.6573 2.05034L8.00031 7.70734Z" fill="#1C1B20"/>
    </svg>
  </g>

  <g id='text-to-speech'>
    <svg width="32" height="32" viewBox="0 0 32 32" fill="none" xmlns="http://www.w3.org/2000/svg">
      <path d="M22.8004 12.8C21.9204 12.8 21.1673 12.4933 20.5412 11.88C19.9151 11.2667 19.6015 10.5067 19.6004 9.6V3.2C19.6004 2.29333 19.914 1.53333 20.5412 0.92C21.1684 0.306667 21.9215 0 22.8004 0C23.7071 0 24.4671 0.306667 25.0804 0.92C25.6937 1.53333 26.0004 2.29333 26.0004 3.2V9.6C26.0004 10.5067 25.6937 11.2667 25.0804 11.88C24.4671 12.4933 23.7071 12.8 22.8004 12.8ZM3.60039 32C2.72039 32 1.96732 31.6869 1.34119 31.0608C0.715057 30.4347 0.401457 29.6811 0.400391 28.8V3.2C0.400391 2.32 0.713991 1.56693 1.34119 0.9408C1.96839 0.314667 2.72146 0.00106667 3.60039 0H16.4004V3.2H3.60039V28.8H21.2004V25.6H24.4004V28.8C24.4004 29.68 24.0873 30.4336 23.4612 31.0608C22.8351 31.688 22.0815 32.0011 21.2004 32H3.60039ZM6.80039 25.6V22.4H18.0004V25.6H6.80039ZM6.80039 20.8V17.6H14.8004V20.8H6.80039ZM24.4004 22.4H21.2004V18.24C19.1471 17.8667 17.4335 16.8736 16.0596 15.2608C14.6857 13.648 13.9993 11.7611 14.0004 9.6H17.2004C17.2004 11.1467 17.7471 12.4667 18.8404 13.56C19.9337 14.6533 21.2537 15.2 22.8004 15.2C24.3737 15.2 25.7007 14.6533 26.7812 13.56C27.8617 12.4667 28.4015 11.1467 28.4004 9.6H31.6004C31.6004 11.76 30.9204 13.6469 29.5604 15.2608C28.2004 16.8747 26.4804 17.8677 24.4004 18.24V22.4Z" fill="currentColor"/>
    </svg>

  </g>

  <g id='mkt'>
    <svg width="28" height="32" viewBox="0 0 28 32" fill="none" xmlns="http://www.w3.org/2000/svg">
    <path d="M24.6661 7.61905H21.6185C21.6185 3.35238 18.2661 0 13.9994 0C9.73278 0 6.38039 3.35238 6.38039 7.61905H3.33278C1.65658 7.61905 0.285156 8.99048 0.285156 10.6667V28.9524C0.285156 30.6286 1.65658 32 3.33278 32H24.6661C26.3423 32 27.7137 30.6286 27.7137 28.9524V10.6667C27.7137 8.99048 26.3423 7.61905 24.6661 7.61905ZM13.9994 3.04762C16.5899 3.04762 18.5709 5.02857 18.5709 7.61905H9.42801C9.42801 5.02857 11.409 3.04762 13.9994 3.04762ZM24.6661 28.9524H3.33278V10.6667H24.6661V28.9524ZM13.9994 16.7619C11.409 16.7619 9.42801 14.781 9.42801 12.1905H6.38039C6.38039 16.4571 9.73278 19.8095 13.9994 19.8095C18.2661 19.8095 21.6185 16.4571 21.6185 12.1905H18.5709C18.5709 14.781 16.5899 16.7619 13.9994 16.7619Z" fill="currentColor"/>
    </svg>
  </g>

  <g id='lock'>
    <svg width="26" height="32" viewBox="0 0 26 32" fill="none" xmlns="http://www.w3.org/2000/svg">
    <path d="M13 24.381C12.1918 24.381 11.4166 24.0599 10.8451 23.4883C10.2735 22.9168 9.95243 22.1416 9.95243 21.3333C9.95243 19.6419 11.3086 18.2857 13 18.2857C13.8083 18.2857 14.5835 18.6068 15.155 19.1783C15.7266 19.7499 16.0477 20.5251 16.0477 21.3333C16.0477 22.1416 15.7266 22.9168 15.155 23.4883C14.5835 24.0599 13.8083 24.381 13 24.381ZM22.1429 28.9524V13.7143H3.85719V28.9524H22.1429ZM22.1429 10.6667C22.9512 10.6667 23.7264 10.9878 24.2979 11.5593C24.8694 12.1308 25.1905 12.906 25.1905 13.7143V28.9524C25.1905 29.7607 24.8694 30.5358 24.2979 31.1074C23.7264 31.6789 22.9512 32 22.1429 32H3.85719C3.04891 32 2.27374 31.6789 1.7022 31.1074C1.13066 30.5358 0.80957 29.7607 0.80957 28.9524V13.7143C0.80957 12.0229 2.16576 10.6667 3.85719 10.6667H5.381V7.61905C5.381 5.59835 6.18372 3.66042 7.61257 2.23157C9.04142 0.802719 10.9793 0 13 0C14.0006 0 14.9913 0.197073 15.9157 0.579966C16.8401 0.962858 17.68 1.52407 18.3875 2.23157C19.095 2.93906 19.6562 3.77898 20.0391 4.70336C20.422 5.62775 20.6191 6.6185 20.6191 7.61905V10.6667H22.1429ZM13 3.04762C11.7876 3.04762 10.6249 3.52925 9.76756 4.38656C8.91025 5.24387 8.42862 6.40663 8.42862 7.61905V10.6667H17.5715V7.61905C17.5715 6.40663 17.0898 5.24387 16.2325 4.38656C15.3752 3.52925 14.2125 3.04762 13 3.04762Z" fill="currentColor"/>
    </svg>

  </g>

  <g id='user-group'>
    <svg width="32" height="32" viewBox="0 0 32 32" fill="none" xmlns="http://www.w3.org/2000/svg">
      <path d="M6.85714 5.14272C6.85714 4.53651 7.09796 3.95513 7.52661 3.52647C7.95527 3.09782 8.53665 2.857 9.14286 2.857C9.74907 2.857 10.3304 3.09782 10.7591 3.52647C11.1878 3.95513 11.4286 4.53651 11.4286 5.14272C11.4286 5.74893 11.1878 6.33031 10.7591 6.75896C10.3304 7.18762 9.74907 7.42843 9.14286 7.42843C8.53665 7.42843 7.95527 7.18762 7.52661 6.75896C7.09796 6.33031 6.85714 5.74893 6.85714 5.14272ZM9.14286 0.571289C7.93044 0.571289 6.76768 1.05292 5.91037 1.91023C5.05306 2.76754 4.57143 3.9303 4.57143 5.14272C4.57143 6.35514 5.05306 7.5179 5.91037 8.37521C6.76768 9.23252 7.93044 9.71415 9.14286 9.71415C10.3553 9.71415 11.518 9.23252 12.3753 8.37521C13.2327 7.5179 13.7143 6.35514 13.7143 5.14272C13.7143 3.9303 13.2327 2.76754 12.3753 1.91023C11.518 1.05292 10.3553 0.571289 9.14286 0.571289ZM2.85714 11.9999C2.09938 11.9999 1.37266 12.3009 0.836838 12.8367C0.30102 13.3725 0 14.0992 0 14.857V15.1427C0 15.457 -1.36239e-07 17.2513 1.20457 18.9827C2.06971 20.2261 3.47086 21.3221 5.66057 21.8856C6.10204 21.0417 6.79498 20.3559 7.64343 19.9233C4.98057 19.6364 3.71543 18.5896 3.08114 17.6776C2.57066 16.9301 2.2938 16.0478 2.28571 15.1427V14.857C2.28571 14.7055 2.34592 14.5601 2.45308 14.4529C2.56025 14.3458 2.70559 14.2856 2.85714 14.2856H9.71429C9.71429 13.4787 9.86629 12.7084 10.1429 11.9999H2.85714ZM30.7954 18.9827C29.9303 20.2261 28.5291 21.3221 26.3394 21.8856C25.8979 21.0417 25.205 20.356 24.3566 19.9233C27.0194 19.6364 28.2846 18.5896 28.9189 17.6776C29.4293 16.9301 29.7062 16.0478 29.7143 15.1427V14.857C29.7143 14.7055 29.6541 14.5601 29.5469 14.4529C29.4398 14.3458 29.2944 14.2856 29.1429 14.2856H22.2857C22.2857 13.4787 22.1337 12.7084 21.8571 11.9999H29.1429C29.9006 11.9999 30.6273 12.3009 31.1632 12.8367C31.699 13.3725 32 14.0992 32 14.857V15.1427C32 15.457 32 17.2513 30.7954 18.9827ZM20.5714 5.14272C20.5714 4.53651 20.8122 3.95513 21.2409 3.52647C21.6696 3.09782 22.2509 2.857 22.8571 2.857C23.4634 2.857 24.0447 3.09782 24.4734 3.52647C24.902 3.95513 25.1429 4.53651 25.1429 5.14272C25.1429 5.74893 24.902 6.33031 24.4734 6.75896C24.0447 7.18762 23.4634 7.42843 22.8571 7.42843C22.2509 7.42843 21.6696 7.18762 21.2409 6.75896C20.8122 6.33031 20.5714 5.74893 20.5714 5.14272ZM22.8571 0.571289C21.6447 0.571289 20.482 1.05292 19.6247 1.91023C18.7673 2.76754 18.2857 3.9303 18.2857 5.14272C18.2857 6.35514 18.7673 7.5179 19.6247 8.37521C20.482 9.23252 21.6447 9.71415 22.8571 9.71415C24.0696 9.71415 25.2323 9.23252 26.0896 8.37521C26.9469 7.5179 27.4286 6.35514 27.4286 5.14272C27.4286 3.9303 26.9469 2.76754 26.0896 1.91023C25.2323 1.05292 24.0696 0.571289 22.8571 0.571289ZM16 11.9999C15.3938 11.9999 14.8124 12.2407 14.3838 12.6693C13.9551 13.098 13.7143 13.6794 13.7143 14.2856C13.7143 14.8918 13.9551 15.4732 14.3838 15.9018C14.8124 16.3305 15.3938 16.5713 16 16.5713C16.6062 16.5713 17.1876 16.3305 17.6162 15.9018C18.0449 15.4732 18.2857 14.8918 18.2857 14.2856C18.2857 13.6794 18.0449 13.098 17.6162 12.6693C17.1876 12.2407 16.6062 11.9999 16 11.9999ZM11.4286 14.2856C11.4286 13.0732 11.9102 11.9104 12.7675 11.0531C13.6248 10.1958 14.7876 9.71415 16 9.71415C17.2124 9.71415 18.3752 10.1958 19.2325 11.0531C20.0898 11.9104 20.5714 13.0732 20.5714 14.2856C20.5714 15.498 20.0898 16.6608 19.2325 17.5181C18.3752 18.3754 17.2124 18.857 16 18.857C14.7876 18.857 13.6248 18.3754 12.7675 17.5181C11.9102 16.6608 11.4286 15.498 11.4286 14.2856ZM6.85714 23.9999C6.85714 23.2421 7.15816 22.5154 7.69398 21.9796C8.2298 21.4437 8.95652 21.1427 9.71429 21.1427H22.2857C22.6609 21.1427 23.0325 21.2166 23.3791 21.3602C23.7257 21.5038 24.0407 21.7142 24.306 21.9796C24.5713 22.2449 24.7818 22.5598 24.9254 22.9065C25.069 23.2531 25.1429 23.6247 25.1429 23.9999V24.2856C25.1429 24.5999 25.1429 26.3941 23.9383 28.1256C22.6811 29.9324 20.2926 31.4284 16 31.4284C11.7086 31.4284 9.31886 29.9324 8.06171 28.1256C6.85714 26.3941 6.85714 24.601 6.85714 24.2856V23.9999ZM9.71429 23.4284C9.56273 23.4284 9.41739 23.4886 9.31022 23.5958C9.20306 23.703 9.14286 23.8483 9.14286 23.9999V24.2856C9.14286 24.4741 9.144 25.6799 9.93829 26.8204C10.6811 27.889 12.2926 29.1427 16 29.1427C19.7086 29.1427 21.3189 27.889 22.0617 26.8204C22.5722 26.073 22.8491 25.1907 22.8571 24.2856V23.9999C22.8571 23.8483 22.7969 23.703 22.6898 23.5958C22.5826 23.4886 22.4373 23.4284 22.2857 23.4284H9.71429Z" fill="white"/>
    </svg>

  </g>
  
  <g id=''></g>
  <g id=''></g>
  <g id=''></g>
</svg>